<svg width="180" height="28" viewBox="0 0 180 28" fill="none" xmlns="http://www.w3.org/2000/svg">
<g clip-path="url(#clip0_2237_351)">
<path d="M44.7521 14.2234C44.5605 13.9842 44.2993 13.7791 43.9511 13.6253C43.6202 13.4715 43.2719 13.4031 42.9237 13.4031C42.558 13.4031 42.2272 13.4715 41.9485 13.6253C41.6525 13.762 41.4087 13.9671 41.1998 14.2064C40.9908 14.4456 40.8341 14.7191 40.7122 15.0438C40.5903 15.3514 40.5381 15.6932 40.5381 16.0521C40.5381 16.411 40.5903 16.7528 40.7122 17.0604C40.8167 17.368 40.9908 17.6586 41.1998 17.8978C41.4087 18.1371 41.6699 18.3251 41.966 18.4618C42.262 18.5985 42.6102 18.6669 42.9759 18.6669C43.3242 18.6669 43.6724 18.5985 44.0033 18.4789C44.3516 18.3422 44.6302 18.1542 44.8391 17.9149L46.7372 20.1879C46.3018 20.5981 45.7446 20.9228 45.0655 21.162C44.3864 21.4013 43.655 21.5038 42.8889 21.5038C42.0704 21.5038 41.3043 21.3842 40.5903 21.1279C39.8764 20.8886 39.2495 20.5126 38.7271 20.0512C38.2047 19.5727 37.7868 19.0087 37.4908 18.3422C37.1947 17.6756 37.038 16.9066 37.038 16.0692C37.038 15.2318 37.1947 14.4798 37.4908 13.8133C37.7868 13.1468 38.2047 12.5657 38.7271 12.1043C39.2495 11.6257 39.8764 11.2669 40.5903 11.0105C41.3043 10.7541 42.0704 10.6345 42.8714 10.6345C43.2545 10.6345 43.6202 10.6687 43.9859 10.7371C44.3516 10.8054 44.7172 10.8909 45.0481 11.0105C45.3789 11.1301 45.7098 11.2669 45.9884 11.4378C46.267 11.6087 46.5282 11.7966 46.7372 12.0017L44.7521 14.2234Z" fill="#151F39"/>
<path d="M54.7471 21.1619V15.6076C54.7471 15.3171 54.7297 15.0436 54.6775 14.7873C54.6252 14.5309 54.5556 14.2917 54.4337 14.1037C54.3118 13.8986 54.1551 13.7448 53.9635 13.6252C53.772 13.5055 53.5108 13.4543 53.2147 13.4543C52.6053 13.4543 52.1525 13.6593 51.8391 14.0866C51.5257 14.5138 51.3515 15.0265 51.3515 15.6418V21.1619H47.9211V5.60989H51.3515V12.2067H51.3864C51.6301 11.7965 51.9958 11.4205 52.5182 11.1129C53.0406 10.7882 53.6501 10.6344 54.3814 10.6344C55.0954 10.6344 55.6874 10.754 56.175 11.0104C56.6626 11.2667 57.0456 11.5743 57.3417 11.9674C57.6377 12.3605 57.8641 12.8048 57.986 13.3175C58.1078 13.8302 58.1775 14.3258 58.1775 14.8386V21.1619H54.7471Z" fill="#151F39"/>
<path d="M60.3195 12.309C60.929 11.728 61.6429 11.3007 62.4613 11.0102C63.2798 10.7196 64.1156 10.5829 64.9688 10.5829C65.8395 10.5829 66.5883 10.6855 67.1977 10.9076C67.8072 11.1298 68.2948 11.4545 68.6778 11.8989C69.0609 12.3432 69.3395 12.9072 69.5137 13.5908C69.6878 14.2744 69.7749 15.0776 69.7749 16.0005V21.1617H66.6405V20.0679H66.5708C66.3096 20.4952 65.9091 20.8199 65.3693 21.0592C64.8295 21.2984 64.2549 21.401 63.628 21.401C63.2101 21.401 62.7748 21.3497 62.322 21.2301C61.8693 21.1275 61.4688 20.9395 61.1031 20.7003C60.7374 20.461 60.424 20.1192 60.1976 19.709C59.9538 19.2989 59.8494 18.7862 59.8494 18.188C59.8494 17.4531 60.0583 16.855 60.4588 16.3936C60.8767 15.9321 61.3991 15.5903 62.0434 15.3511C62.6877 15.1118 63.4191 14.9409 64.2201 14.8555C65.0211 14.77 65.7873 14.7358 66.5534 14.7358V14.5649C66.5534 14.0522 66.3793 13.6762 66.0136 13.437C65.648 13.1977 65.2126 13.0781 64.6728 13.0781C64.1852 13.0781 63.7151 13.1806 63.2623 13.3857C62.8096 13.5908 62.4265 13.8471 62.0957 14.1206L60.3195 12.309ZM66.6231 16.7012H66.1878C65.8047 16.7012 65.4216 16.7183 65.0559 16.7525C64.6728 16.7866 64.3246 16.855 64.0285 16.9404C63.7325 17.043 63.4887 17.1797 63.2798 17.3677C63.0882 17.5557 62.9837 17.795 62.9837 18.1026C62.9837 18.2906 63.036 18.4615 63.123 18.5982C63.2101 18.7349 63.332 18.8374 63.4713 18.9229C63.6106 19.0084 63.7673 19.0596 63.9589 19.0938C64.133 19.128 64.3071 19.1451 64.4813 19.1451C65.1778 19.1451 65.7176 18.9571 66.0833 18.5811C66.449 18.2051 66.6405 17.6924 66.6405 17.043L66.6231 16.7012Z" fill="#151F39"/>
<path d="M78.882 21.1621V15.5565C78.882 15.266 78.8646 14.9925 78.8123 14.7362C78.7601 14.4798 78.6904 14.2406 78.5685 14.0526C78.4641 13.8475 78.3073 13.6937 78.0984 13.5741C77.8894 13.4544 77.6456 13.4032 77.3322 13.4032C77.0188 13.4032 76.7576 13.4544 76.5312 13.5741C76.3048 13.6937 76.1133 13.8475 75.9566 14.0526C75.7999 14.2577 75.6954 14.4969 75.6083 14.7704C75.5387 15.0438 75.4864 15.3172 75.4864 15.6078V21.1621H72.0386V10.908H75.3645V12.3265H75.3993C75.5212 12.1043 75.6954 11.8992 75.8869 11.6771C76.0959 11.472 76.3222 11.284 76.6009 11.1302C76.8795 10.9764 77.1755 10.8567 77.4889 10.7542C77.8024 10.6516 78.1506 10.6175 78.5163 10.6175C79.2128 10.6175 79.8049 10.7371 80.2924 10.9934C80.78 11.2327 81.1805 11.5574 81.4765 11.9505C81.7726 12.3436 81.9989 12.7879 82.1208 13.3006C82.2601 13.8133 82.3124 14.3089 82.3124 14.8216V21.145L78.882 21.1621Z" fill="#151F39"/>
<path d="M91.4715 21.1621V15.5565C91.4715 15.266 91.4541 14.9925 91.4019 14.7362C91.3497 14.4798 91.28 14.2406 91.1581 14.0526C91.0536 13.8475 90.8969 13.6937 90.688 13.5741C90.479 13.4544 90.2352 13.4032 89.9218 13.4032C89.6083 13.4032 89.3471 13.4544 89.1208 13.5741C88.8944 13.6937 88.7029 13.8475 88.5461 14.0526C88.3894 14.2577 88.2849 14.4969 88.1979 14.7704C88.1282 15.0438 88.076 15.3172 88.076 15.6078V21.1621H84.6282V10.908H87.9541V12.3265H87.9889C88.1108 12.1043 88.2849 11.8992 88.4765 11.6771C88.6854 11.472 88.9118 11.284 89.1904 11.1302C89.469 10.9764 89.7651 10.8567 90.0785 10.7542C90.3919 10.6516 90.7402 10.6175 91.1059 10.6175C91.8024 10.6175 92.3945 10.7371 92.882 10.9934C93.3696 11.2327 93.7701 11.5574 94.0661 11.9505C94.3621 12.3436 94.5885 12.7879 94.7104 13.3006C94.8497 13.8133 94.9019 14.3089 94.9019 14.8216V21.145L91.4715 21.1621Z" fill="#151F39"/>
<path d="M107.527 16.1547C107.527 16.2914 107.527 16.4281 107.527 16.5649C107.527 16.7016 107.527 16.8383 107.509 16.9579H99.9519C99.9867 17.2485 100.074 17.5048 100.213 17.7441C100.352 17.9833 100.544 18.1884 100.77 18.3593C100.997 18.5302 101.258 18.6669 101.554 18.7524C101.85 18.8378 102.129 18.8891 102.442 18.8891C102.982 18.8891 103.452 18.7866 103.818 18.5986C104.201 18.3935 104.497 18.1372 104.741 17.8295L107.126 19.3164C106.639 20.0171 105.994 20.5469 105.193 20.9228C104.392 21.2988 103.452 21.4868 102.39 21.4868C101.606 21.4868 100.875 21.3672 100.161 21.1279C99.4469 20.8887 98.8549 20.5469 98.3325 20.0854C97.8101 19.624 97.3921 19.06 97.0961 18.3935C96.8001 17.727 96.6434 16.9408 96.6434 16.0863C96.6434 15.2489 96.7827 14.497 97.0787 13.8134C97.3747 13.1297 97.7752 12.5658 98.2802 12.0873C98.7852 11.6087 99.3773 11.2498 100.056 10.9935C100.735 10.7371 101.484 10.6004 102.285 10.6004C103.051 10.6004 103.765 10.72 104.41 10.9764C105.054 11.2327 105.611 11.5916 106.064 12.0702C106.534 12.5487 106.882 13.1297 107.144 13.8134C107.387 14.497 107.527 15.2831 107.527 16.1547ZM104.357 14.8559C104.357 14.3261 104.183 13.8646 103.835 13.4716C103.487 13.0956 102.982 12.8905 102.303 12.8905C101.972 12.8905 101.658 12.9418 101.38 13.0443C101.101 13.1468 100.857 13.2836 100.648 13.4716C100.439 13.6425 100.265 13.8646 100.143 14.1039C100.022 14.3431 99.9519 14.5995 99.9345 14.8559H104.357Z" fill="#151F39"/>
<path d="M109.372 21.1619V5.60989H112.872V21.1448L109.372 21.1619Z" fill="#151F39"/>
<path d="M125.062 15.7787C125.062 15.8813 125.062 15.9838 125.062 16.1034C125.062 16.2231 125.062 16.3427 125.044 16.4794H116.46C116.477 16.9921 116.581 17.4706 116.773 17.915C116.965 18.3593 117.226 18.7524 117.574 19.0942C117.922 19.436 118.305 19.6924 118.775 19.8803C119.228 20.0683 119.733 20.1709 120.256 20.1709C121.039 20.1709 121.718 20 122.276 19.6411C122.833 19.2822 123.268 18.872 123.564 18.4106L124.696 19.2822C124.069 20.0512 123.39 20.5981 122.641 20.9399C121.892 21.2646 121.091 21.4355 120.238 21.4355C119.472 21.4355 118.758 21.2988 118.114 21.0425C117.452 20.769 116.895 20.393 116.425 19.9316C115.955 19.4531 115.589 18.8891 115.31 18.2397C115.032 17.5903 114.91 16.8725 114.91 16.1205C114.91 15.3686 115.049 14.6508 115.31 14.0013C115.571 13.3519 115.937 12.7879 116.407 12.3094C116.877 11.8309 117.435 11.4549 118.062 11.1986C118.688 10.9251 119.385 10.8055 120.116 10.8055C120.935 10.8055 121.649 10.9422 122.258 11.1986C122.868 11.4549 123.39 11.8309 123.808 12.2752C124.226 12.7196 124.539 13.2665 124.748 13.8646C124.957 14.4286 125.062 15.078 125.062 15.7787ZM123.547 15.3002C123.512 14.3431 123.198 13.557 122.606 12.9247C122.032 12.2923 121.196 11.9847 120.116 11.9847C119.611 11.9847 119.159 12.0702 118.723 12.2581C118.288 12.4461 117.922 12.6854 117.591 12.993C117.261 13.3006 117.017 13.6595 116.808 14.0526C116.616 14.4457 116.512 14.8729 116.477 15.3002H123.547Z" fill="#151F39"/>
<path d="M129.067 10.9932C129.101 11.2666 129.119 11.5743 129.136 11.899C129.154 12.2237 129.154 12.5142 129.154 12.7193H129.189C129.485 12.1211 129.955 11.6426 130.616 11.2837C131.278 10.9077 131.975 10.7368 132.723 10.7368C134.029 10.7368 135.022 11.1128 135.684 11.8819C136.345 12.6509 136.676 13.6592 136.676 14.9239V21.1447H135.179V15.5392C135.179 15.0094 135.144 14.5138 135.039 14.0865C134.935 13.6593 134.796 13.2833 134.587 12.9756C134.378 12.668 134.082 12.4288 133.716 12.2579C133.35 12.087 132.898 12.0015 132.358 12.0015C131.957 12.0015 131.574 12.087 131.191 12.2408C130.808 12.3946 130.477 12.6338 130.181 12.9586C129.885 13.2833 129.659 13.6934 129.467 14.189C129.293 14.6847 129.206 15.2828 129.206 15.9493V21.1618H127.708V13.232C127.708 12.9586 127.708 12.5997 127.691 12.1724C127.674 11.7452 127.656 11.3521 127.621 10.9932H129.067Z" fill="#151F39"/>
<path d="M140.559 23.1955C140.977 23.7253 141.535 24.1526 142.248 24.5286C142.962 24.8875 143.729 25.0755 144.512 25.0755C145.244 25.0755 145.87 24.9729 146.393 24.7678C146.915 24.5627 147.316 24.2722 147.647 23.9133C147.96 23.5544 148.204 23.1272 148.343 22.6487C148.482 22.1701 148.569 21.6403 148.569 21.0935V19.1623H148.535C148.134 19.7946 147.577 20.2902 146.846 20.632C146.114 20.9738 145.365 21.1618 144.617 21.1618C143.798 21.1618 143.067 21.0251 142.423 20.7687C141.761 20.5124 141.204 20.1535 140.733 19.6921C140.263 19.2306 139.915 18.6837 139.654 18.0514C139.393 17.4191 139.271 16.7184 139.271 15.9835C139.271 15.2657 139.393 14.5821 139.654 13.9498C139.915 13.3174 140.281 12.7535 140.733 12.2749C141.186 11.7964 141.761 11.4204 142.423 11.147C143.084 10.8736 143.816 10.7368 144.617 10.7368C145.365 10.7368 146.097 10.9077 146.828 11.2495C147.559 11.5913 148.117 12.087 148.535 12.7535H148.569V10.9932H150.067V21.0593C150.067 21.6062 149.997 22.1872 149.841 22.8196C149.684 23.4519 149.405 24.0159 148.97 24.5286C148.535 25.0413 147.977 25.4856 147.263 25.8274C146.532 26.1692 145.609 26.3572 144.46 26.3572C143.502 26.3572 142.579 26.1692 141.709 25.8103C140.838 25.4514 140.089 24.9558 139.48 24.3064L140.559 23.1955ZM140.838 15.9493C140.838 16.4791 140.925 16.9918 141.099 17.4703C141.273 17.9489 141.534 18.359 141.865 18.735C142.196 19.0939 142.597 19.3844 143.084 19.5895C143.572 19.7946 144.129 19.8971 144.739 19.8971C145.313 19.8971 145.836 19.7946 146.323 19.6066C146.811 19.4186 147.229 19.1452 147.577 18.8034C147.925 18.4616 148.204 18.0343 148.413 17.5558C148.604 17.0773 148.709 16.5304 148.709 15.9322C148.709 15.4024 148.604 14.8897 148.413 14.4112C148.221 13.9327 147.943 13.5225 147.577 13.1465C147.211 12.7706 146.793 12.4971 146.323 12.2749C145.853 12.0528 145.313 11.9502 144.739 11.9502C144.112 11.9502 143.572 12.0528 143.084 12.2749C142.597 12.4971 142.196 12.7877 141.865 13.1465C141.534 13.5054 141.273 13.9327 141.099 14.4112C140.925 14.9068 140.838 15.4024 140.838 15.9493Z" fill="#151F39"/>
<path d="M155.204 7.07959C155.204 7.38721 155.099 7.62648 154.873 7.83156C154.647 8.03664 154.403 8.12209 154.142 8.12209C153.88 8.12209 153.637 8.01955 153.41 7.83156C153.184 7.64357 153.079 7.38721 153.079 7.07959C153.079 6.77197 153.184 6.53271 153.41 6.32763C153.637 6.12254 153.88 6.03709 154.142 6.03709C154.403 6.03709 154.647 6.13963 154.873 6.32763C155.099 6.53271 155.204 6.78906 155.204 7.07959ZM154.908 21.1619H153.41V10.9932H154.908V21.1619Z" fill="#151F39"/>
<path d="M159.609 10.9932C159.644 11.2666 159.662 11.5743 159.679 11.899C159.696 12.2237 159.696 12.5142 159.696 12.7193H159.731C160.027 12.1211 160.497 11.6426 161.159 11.2837C161.821 10.9077 162.517 10.7368 163.266 10.7368C164.572 10.7368 165.565 11.1128 166.226 11.8819C166.888 12.6509 167.219 13.6592 167.219 14.9239V21.1447H165.721V15.5392C165.721 15.0094 165.686 14.5138 165.582 14.0865C165.478 13.6593 165.338 13.2833 165.129 12.9756C164.92 12.668 164.624 12.4288 164.259 12.2579C163.893 12.087 163.44 12.0015 162.9 12.0015C162.5 12.0015 162.117 12.087 161.734 12.2408C161.351 12.3946 161.02 12.6338 160.724 12.9586C160.428 13.2833 160.201 13.6934 160.01 14.189C159.836 14.6847 159.749 15.2828 159.749 15.9493V21.1618H158.251V13.232C158.251 12.9586 158.251 12.5997 158.234 12.1724C158.216 11.7452 158.199 11.3521 158.164 10.9932H159.609Z" fill="#151F39"/>
<path d="M180 15.7787C180 15.8813 180 15.9838 180 16.1034C180 16.2231 180 16.3427 179.983 16.4794H171.398C171.416 16.9921 171.52 17.4706 171.712 17.915C171.903 18.3593 172.164 18.7524 172.513 19.0942C172.861 19.436 173.244 19.6924 173.714 19.8803C174.167 20.0683 174.672 20.1709 175.194 20.1709C175.978 20.1709 176.657 20 177.214 19.6411C177.771 19.2822 178.207 18.872 178.503 18.4106L179.635 19.2822C179.008 20.0512 178.329 20.5981 177.58 20.9399C176.831 21.2646 176.03 21.4355 175.177 21.4355C174.411 21.4355 173.697 21.2988 173.052 21.0425C172.391 20.769 171.833 20.393 171.363 19.9316C170.893 19.4531 170.528 18.8891 170.249 18.2397C169.97 17.5903 169.848 16.8725 169.848 16.1205C169.848 15.3686 169.988 14.6508 170.249 14.0013C170.51 13.3519 170.876 12.7879 171.346 12.3094C171.816 11.8309 172.373 11.4549 173 11.1986C173.627 10.9251 174.324 10.8055 175.055 10.8055C175.873 10.8055 176.587 10.9422 177.197 11.1986C177.806 11.4549 178.329 11.8309 178.747 12.2752C179.164 12.7196 179.478 13.2665 179.687 13.8646C179.896 14.4286 180 15.078 180 15.7787ZM178.485 15.3002C178.451 14.3431 178.137 13.557 177.545 12.9247C176.97 12.2923 176.135 11.9847 175.055 11.9847C174.55 11.9847 174.097 12.0702 173.662 12.2581C173.227 12.4461 172.861 12.6854 172.53 12.993C172.199 13.3006 171.955 13.6595 171.746 14.0526C171.555 14.4457 171.45 14.8729 171.416 15.3002H178.485Z" fill="#151F39"/>
<path d="M16.3684 9.77994C15.7067 12.0871 14.749 14.343 13.5126 16.428C13.1644 17.0091 12.7813 17.5901 12.3982 18.1712C10.7439 18.325 9.08969 18.5814 7.5051 18.9915C6.75633 19.1795 6.04239 19.3846 5.31104 19.6239C6.9827 18.0174 8.41058 16.2229 9.57726 14.2063C11.2315 11.4035 12.3111 8.2931 12.7465 5.09725H10.7788L15.0798 0.192383L19.3809 5.08016H17.3261C17.1346 6.66954 16.8211 8.24183 16.3684 9.77994Z" fill="#2095F3"/>
<path d="M21.0352 22.1534C19.3287 20.4102 17.8486 18.4961 16.6122 16.3769C16.264 15.7958 15.9331 15.1806 15.6371 14.5824C16.3336 13.0956 16.9082 11.5746 17.3784 10.0194C17.5874 9.30158 17.7615 8.5838 17.9182 7.84892C18.4928 10.0365 19.3635 12.1556 20.5302 14.1894C22.1844 16.9921 24.3785 19.4702 26.9731 21.4356L27.9482 19.7607L30.1248 25.8619L23.6471 27.0582L24.6745 25.3321C23.4034 24.3409 22.167 23.2813 21.0352 22.1534Z" fill="#2095F3"/>
<path d="M0 25.8107L2.17665 19.7095L3.20402 21.4527C4.70156 20.8033 6.23392 20.3077 7.8011 19.8975C10.1867 19.3164 12.642 19.0259 15.0972 19.0259C15.7938 19.0259 16.4729 19.043 17.1868 19.0943C18.1445 20.4273 19.1893 21.692 20.3386 22.8541C20.8784 23.401 21.4182 23.8966 21.9928 24.4093C19.7814 23.777 17.4654 23.4693 15.0972 23.4693C11.8061 23.4693 8.51504 24.1188 5.46774 25.3322L6.44288 27.007L0 25.8107Z" fill="#2095F3"/>
</g>
<defs>
<clipPath id="clip0_2237_351">
<rect width="180" height="26.8657" fill="white" transform="translate(0 0.192383)"/>
</clipPath>
</defs>
</svg>
