<svg width="48" height="48" viewBox="0 0 48 48" fill="none" xmlns="http://www.w3.org/2000/svg">
<path d="M16.5 37.501C16.5 38.2966 16.184 39.0597 15.6214 39.6223C15.0587 40.1849 14.2957 40.501 13.5 40.501C12.7044 40.501 11.9413 40.1849 11.3787 39.6223C10.8161 39.0597 10.5 38.2966 10.5 37.501M16.5 37.501C16.5 36.7053 16.184 35.9422 15.6214 35.3796C15.0587 34.817 14.2957 34.501 13.5 34.501C12.7044 34.501 11.9413 34.817 11.3787 35.3796C10.8161 35.9422 10.5 36.7053 10.5 37.501M16.5 37.501H28.5M10.5 37.501H6.75004C6.1533 37.501 5.581 37.2639 5.15905 36.842C4.73709 36.42 4.50004 35.8477 4.50004 35.251V28.501M28.5 37.501H33M28.5 37.501V28.501M4.50004 28.501V13.231C4.49686 12.6833 4.69696 12.1539 5.06162 11.7453C5.42627 11.3367 5.92955 11.0779 6.47404 11.019C13.1401 10.327 19.8599 10.327 26.526 11.019C27.656 11.135 28.5 12.095 28.5 13.231V15.147M4.50004 28.501H28.5M39 37.501C39 38.2966 38.684 39.0597 38.1214 39.6223C37.5587 40.1849 36.7957 40.501 36 40.501C35.2044 40.501 34.4413 40.1849 33.8787 39.6223C33.3161 39.0597 33 38.2966 33 37.501M39 37.501C39 36.7053 38.684 35.9422 38.1214 35.3796C37.5587 34.817 36.7957 34.501 36 34.501C35.2044 34.501 34.4413 34.817 33.8787 35.3796C33.3161 35.9422 33 36.7053 33 37.501M39 37.501H41.25C42.492 37.501 43.508 36.493 43.43 35.253C43.0281 28.6482 40.8038 22.2841 37.004 16.867C36.6421 16.3595 36.1696 15.941 35.6221 15.643C35.0747 15.345 34.4667 15.1754 33.844 15.147H28.5M28.5 15.147V28.501" stroke="#2C2929" stroke-width="2" stroke-linecap="round" stroke-linejoin="round"/>
</svg>
