<svg width="48" height="48" viewBox="0 0 48 48" fill="none" xmlns="http://www.w3.org/2000/svg">
<path d="M22.5 22.5L22.582 22.46C22.8385 22.3319 23.1263 22.2799 23.4113 22.3103C23.6964 22.3407 23.9668 22.4521 24.1905 22.6314C24.4142 22.8107 24.5818 23.0504 24.6735 23.322C24.7653 23.5936 24.7772 23.8858 24.708 24.164L23.292 29.836C23.2223 30.1143 23.2339 30.4068 23.3254 30.6788C23.4169 30.9507 23.5845 31.1907 23.8083 31.3703C24.0321 31.5499 24.3027 31.6615 24.588 31.692C24.8733 31.7224 25.1614 31.6703 25.418 31.542L25.5 31.5M42 24C42 26.3638 41.5344 28.7044 40.6298 30.8883C39.7252 33.0722 38.3994 35.0565 36.7279 36.7279C35.0565 38.3994 33.0722 39.7252 30.8883 40.6298C28.7044 41.5344 26.3638 42 24 42C21.6362 42 19.2956 41.5344 17.1117 40.6298C14.9278 39.7252 12.9435 38.3994 11.2721 36.7279C9.60062 35.0565 8.27475 33.0722 7.37017 30.8883C6.46558 28.7044 6 26.3638 6 24C6 19.2261 7.89642 14.6477 11.2721 11.2721C14.6477 7.89642 19.2261 6 24 6C28.7739 6 33.3523 7.89642 36.7279 11.2721C40.1036 14.6477 42 19.2261 42 24ZM24 16.5H24.016V16.516H24V16.5Z" stroke="#2C2929" stroke-width="2" stroke-linecap="round" stroke-linejoin="round"/>
</svg>
