<svg width="24" height="24" viewBox="0 0 24 24" fill="none" xmlns="http://www.w3.org/2000/svg">
<path d="M22 7.25V17.75C22 18.3467 21.7569 18.919 21.3241 19.341C20.8913 19.7629 20.3043 20 19.6923 20H4.30769C3.69565 20 3.10868 19.7629 2.67591 19.341C2.24313 18.919 2 18.3467 2 17.75V7.25M22 7.25C22 6.65326 21.7569 6.08097 21.3241 5.65901C20.8913 5.23705 20.3043 5 19.6923 5H4.30769C3.69565 5 3.10868 5.23705 2.67591 5.65901C2.24313 6.08097 2 6.65326 2 7.25M22 7.25V7.493C22 7.87715 21.8992 8.25491 21.7071 8.5903C21.515 8.92569 21.238 9.20754 20.9026 9.409L13.2103 14.024C12.8464 14.2425 12.4274 14.3582 12 14.3582C11.5726 14.3582 11.1536 14.2425 10.7897 14.024L3.09744 9.41C2.76197 9.20854 2.48499 8.92669 2.29289 8.5913C2.10079 8.25591 1.99996 7.87815 2 7.494V7.25" stroke="#2C2929" stroke-width="1.5" stroke-linecap="round" stroke-linejoin="round"/>
</svg>
