<svg width="24" height="24" viewBox="0 0 24 24" fill="none" xmlns="http://www.w3.org/2000/svg">
<path d="M15 11C15 11.7956 14.6839 12.5587 14.1213 13.1213C13.5587 13.6839 12.7956 14 12 14C11.2044 14 10.4413 13.6839 9.87868 13.1213C9.31607 12.5587 9 11.7956 9 11C9 10.2044 9.31607 9.44129 9.87868 8.87868C10.4413 8.31607 11.2044 8 12 8C12.7956 8 13.5587 8.31607 14.1213 8.87868C14.6839 9.44129 15 10.2044 15 11Z" stroke="#2C2929" stroke-width="1.5" stroke-linecap="round" stroke-linejoin="round"/>
<path d="M20 10.6C20 17.8372 12.5 22 12.5 22C12.5 22 5 17.8372 5 10.6C5 8.58435 5.79018 6.65126 7.1967 5.22599C8.60322 3.80071 10.5109 3 12.5 3C14.4891 3 16.3968 3.80071 17.8033 5.22599C19.2098 6.65126 20 8.58435 20 10.6Z" stroke="#2C2929" stroke-width="1.5" stroke-linecap="round" stroke-linejoin="round"/>
</svg>
