<svg width="24" height="24" viewBox="0 0 24 24" fill="none" xmlns="http://www.w3.org/2000/svg">
<path d="M2 6.61538C2 15.1118 8.88821 22 17.3846 22H19.6923C20.3043 22 20.8913 21.7569 21.3241 21.3241C21.7569 20.8913 22 20.3043 22 19.6923V18.2851C22 17.7559 21.64 17.2944 21.1262 17.1662L16.5897 16.0318C16.1385 15.919 15.6646 16.0882 15.3867 16.4595L14.3918 17.7856C14.1026 18.1713 13.6031 18.3415 13.1508 18.1754C11.4717 17.5581 9.94682 16.5832 8.68183 15.3182C7.41683 14.0532 6.44192 12.5283 5.82462 10.8492C5.65846 10.3969 5.82872 9.89744 6.21436 9.60821L7.54051 8.61333C7.91282 8.33538 8.08103 7.86051 7.96821 7.41026L6.83385 2.87385C6.77142 2.6243 6.62741 2.40277 6.42467 2.24445C6.22193 2.08612 5.97211 2.00009 5.71487 2H4.30769C3.69565 2 3.10868 2.24313 2.67591 2.67591C2.24313 3.10868 2 3.69565 2 4.30769V6.61538Z" stroke="#2C2929" stroke-width="1.5" stroke-linecap="round" stroke-linejoin="round"/>
</svg>
