<svg width="24" height="24" viewBox="0 0 24 24" fill="none" xmlns="http://www.w3.org/2000/svg">
<path d="M9.07627 17.422C9.07627 17.7585 8.94256 18.0813 8.70457 18.3193C8.46657 18.5573 8.14378 18.691 7.8072 18.691C7.47063 18.691 7.14784 18.5573 6.90984 18.3193C6.67185 18.0813 6.53814 17.7585 6.53814 17.422M9.07627 17.422C9.07627 17.0854 8.94256 16.7626 8.70457 16.5246C8.46657 16.2866 8.14378 16.1529 7.8072 16.1529C7.47063 16.1529 7.14784 16.2866 6.90984 16.5246C6.67185 16.7626 6.53814 17.0854 6.53814 17.422M9.07627 17.422H14.1525M6.53814 17.422H4.95181C4.69938 17.422 4.45729 17.3217 4.27879 17.1432C4.10029 16.9647 4.00002 16.7226 4.00002 16.4702V13.6148M14.1525 17.422H16.0561M14.1525 17.422V13.6148M4.00002 13.6148V7.15525C3.99867 6.92358 4.08332 6.69965 4.23757 6.52679C4.39183 6.35394 4.60473 6.24445 4.83506 6.21953C7.65495 5.92682 10.4976 5.92682 13.3175 6.21953C13.7955 6.2686 14.1525 6.6747 14.1525 7.15525V7.96576M4.00002 13.6148H14.1525M18.5942 17.422C18.5942 17.7585 18.4605 18.0813 18.2225 18.3193C17.9845 18.5573 17.6617 18.691 17.3252 18.691C16.9886 18.691 16.6658 18.5573 16.4278 18.3193C16.1898 18.0813 16.0561 17.7585 16.0561 17.422M18.5942 17.422C18.5942 17.0854 18.4605 16.7626 18.2225 16.5246C17.9845 16.2866 17.6617 16.1529 17.3252 16.1529C16.9886 16.1529 16.6658 16.2866 16.4278 16.5246C16.1898 16.7626 16.0561 17.0854 16.0561 17.422M18.5942 17.422H19.546C20.0714 17.422 20.5012 16.9956 20.4682 16.471C20.2982 13.6771 19.3573 10.9849 17.7499 8.69336C17.5968 8.4787 17.3969 8.30165 17.1653 8.1756C16.9337 8.04955 16.6765 7.9778 16.4131 7.96576H14.1525M14.1525 7.96576V13.6148" stroke="#2C2929" stroke-width="1.5" stroke-linecap="round" stroke-linejoin="round"/>
</svg>
