<svg width="24" height="24" viewBox="0 0 24 24" fill="none" xmlns="http://www.w3.org/2000/svg">
<path fill-rule="evenodd" clip-rule="evenodd" d="M4 12.4813C4 12.2824 4.07663 12.0916 4.21302 11.951C4.34942 11.8103 4.53441 11.7313 4.7273 11.7313H17.5181L12.2137 6.26129C12.0852 6.11912 12.0153 5.93107 12.0186 5.73677C12.0219 5.54247 12.0982 5.35708 12.2315 5.21967C12.3647 5.08226 12.5445 5.00355 12.7329 5.00012C12.9214 4.99669 13.1037 5.06881 13.2416 5.20129L19.7873 11.9513C19.9235 12.0919 20 12.2825 20 12.4813C20 12.68 19.9235 12.8707 19.7873 13.0113L13.2416 19.7613C13.175 19.835 13.0947 19.8941 13.0055 19.9351C12.9163 19.9761 12.82 19.9981 12.7223 19.9999C12.6247 20.0017 12.5277 19.9831 12.4371 19.9454C12.3465 19.9077 12.2643 19.8516 12.1952 19.7803C12.1261 19.7091 12.0717 19.6243 12.0351 19.5309C11.9985 19.4375 11.9806 19.3375 11.9823 19.2368C11.984 19.1361 12.0054 19.0368 12.0451 18.9448C12.0849 18.8528 12.1422 18.77 12.2137 18.7013L17.5181 13.2313H4.7273C4.53441 13.2313 4.34942 13.1523 4.21302 13.0116C4.07663 12.871 4 12.6802 4 12.4813Z" fill="white"/>
</svg>
