<svg width="24" height="24" viewBox="0 0 24 24" fill="none" xmlns="http://www.w3.org/2000/svg">
<mask id="path-1-inside-1_1_2341" fill="white">
<path fill-rule="evenodd" clip-rule="evenodd" d="M12.53 16.2801C12.3893 16.4205 12.1987 16.4994 12 16.4994C11.8012 16.4994 11.6106 16.4205 11.47 16.2801L3.96997 8.78009C3.83749 8.63791 3.76537 8.44987 3.76879 8.25557C3.77222 8.06127 3.85093 7.87588 3.98835 7.73847C4.12576 7.60105 4.31115 7.52234 4.50545 7.51891C4.69975 7.51549 4.8878 7.58761 5.02997 7.72009L12 14.6901L18.97 7.72009C19.1121 7.58761 19.3002 7.51549 19.4945 7.51892C19.6888 7.52234 19.8742 7.60106 20.0116 7.73847C20.149 7.87588 20.2277 8.06127 20.2311 8.25557C20.2346 8.44987 20.1625 8.63792 20.03 8.78009L12.53 16.2801Z"/>
</mask>
<path fill-rule="evenodd" clip-rule="evenodd" d="M12.53 16.2801C12.3893 16.4205 12.1987 16.4994 12 16.4994C11.8012 16.4994 11.6106 16.4205 11.47 16.2801L3.96997 8.78009C3.83749 8.63791 3.76537 8.44987 3.76879 8.25557C3.77222 8.06127 3.85093 7.87588 3.98835 7.73847C4.12576 7.60105 4.31115 7.52234 4.50545 7.51891C4.69975 7.51549 4.8878 7.58761 5.02997 7.72009L12 14.6901L18.97 7.72009C19.1121 7.58761 19.3002 7.51549 19.4945 7.51892C19.6888 7.52234 19.8742 7.60106 20.0116 7.73847C20.149 7.87588 20.2277 8.06127 20.2311 8.25557C20.2346 8.44987 20.1625 8.63792 20.03 8.78009L12.53 16.2801Z" fill="white"/>
<path d="M12.53 16.2801L13.59 17.3414L13.5906 17.3408L12.53 16.2801ZM11.47 16.2801L10.4093 17.3408L10.41 17.3414L11.47 16.2801ZM3.96997 8.78009L2.87255 9.80267L2.89059 9.82204L2.90931 9.84075L3.96997 8.78009ZM5.02997 7.72009L6.09063 6.65943L6.07192 6.64072L6.05255 6.62267L5.02997 7.72009ZM12 14.6901L10.9393 15.7508L12 16.8114L13.0606 15.7508L12 14.6901ZM18.97 7.72009L17.9474 6.62267L17.928 6.64072L17.9093 6.65943L18.97 7.72009ZM20.03 8.78009L21.0906 9.84075L21.1093 9.82204L21.1274 9.80267L20.03 8.78009ZM11.47 15.2188C11.6106 15.0783 11.8012 14.9994 12 14.9994L12 17.9994C12.5962 17.9994 13.1681 17.7628 13.59 17.3414L11.47 15.2188ZM12 14.9994C12.1987 14.9994 12.3893 15.0783 12.53 15.2188L10.41 17.3414C10.8318 17.7628 11.4037 17.9994 12 17.9994L12 14.9994ZM12.5306 15.2194L5.03063 7.71943L2.90931 9.84075L10.4093 17.3408L12.5306 15.2194ZM5.06739 7.75751C5.19987 7.89968 5.27199 8.08773 5.26856 8.28203L2.26903 8.22911C2.25874 8.812 2.47511 9.37614 2.87255 9.80267L5.06739 7.75751ZM5.26856 8.28203C5.26513 8.47633 5.18642 8.66171 5.04901 8.79913L2.92769 6.67781C2.51545 7.09005 2.27931 7.64621 2.26903 8.22911L5.26856 8.28203ZM5.04901 8.79913C4.91159 8.93654 4.72621 9.01525 4.53191 9.01868L4.47899 6.01915C3.89609 6.02943 3.33993 6.26557 2.92769 6.67781L5.04901 8.79913ZM4.53191 9.01868C4.33761 9.02211 4.14956 8.94999 4.00739 8.81751L6.05255 6.62267C5.62603 6.22523 5.06189 6.00886 4.47899 6.01915L4.53191 9.01868ZM3.96931 8.78075L10.9393 15.7508L13.0606 13.6294L6.09063 6.65943L3.96931 8.78075ZM13.0606 15.7508L20.0306 8.78075L17.9093 6.65943L10.9393 13.6294L13.0606 15.7508ZM19.9926 8.81751C19.8504 8.94999 19.6623 9.02211 19.468 9.01868L19.521 6.01915C18.9381 6.00886 18.3739 6.22523 17.9474 6.62267L19.9926 8.81751ZM19.468 9.01868C19.2737 9.01525 19.0883 8.93654 18.9509 8.79913L21.0723 6.67781C20.66 6.26557 20.1039 6.02943 19.521 6.01915L19.468 9.01868ZM18.9509 8.79913C18.8135 8.66171 18.7348 8.47633 18.7314 8.28203L21.7309 8.22911C21.7206 7.6462 21.4845 7.09005 21.0723 6.67781L18.9509 8.79913ZM18.7314 8.28203C18.728 8.08773 18.8001 7.89968 18.9326 7.75751L21.1274 9.80267C21.5248 9.37615 21.7412 8.81201 21.7309 8.22911L18.7314 8.28203ZM18.9693 7.71943L11.4693 15.2194L13.5906 17.3408L21.0906 9.84075L18.9693 7.71943Z" fill="white" mask="url(#path-1-inside-1_1_2341)"/>
</svg>
