<svg width="46" height="32" viewBox="0 0 46 32" fill="none" xmlns="http://www.w3.org/2000/svg">
<rect x="0.5" y="0.5" width="45" height="31" rx="3.5" fill="white"/>
<rect x="0.5" y="0.5" width="45" height="31" rx="3.5" stroke="#DEDEDE"/>
<path d="M14.0245 6.66742H21.1687C22.166 6.66742 22.7863 7.50419 22.5536 8.5342L19.2275 23.2347C18.9927 24.2611 17.9943 25.0986 16.9963 25.0986H9.85274C8.85686 25.0986 8.2352 24.2611 8.46784 23.2347L11.7954 8.5342C12.028 7.50419 13.026 6.66742 14.0245 6.66742Z" fill="#E21836"/>
<path d="M20.5739 6.66666H28.7896C29.7866 6.66666 29.337 7.50343 29.1025 8.53344L25.7768 23.2339C25.5435 24.2604 25.6163 25.0978 24.6171 25.0978H16.4014C15.4022 25.0978 14.7839 24.2604 15.0186 23.2339L18.3441 8.53344C18.5802 7.50343 19.5761 6.66666 20.5739 6.66666Z" fill="#00447C"/>
<path d="M28.4638 6.66666H35.6081C36.6067 6.66666 37.227 7.50343 36.9924 8.53344L33.6668 23.2339C33.4321 24.2604 32.4329 25.0978 31.4344 25.0978H24.2935C23.2943 25.0978 22.6745 24.2604 22.9086 23.2339L26.2347 8.53344C26.4674 7.50343 27.4646 6.66666 28.4638 6.66666Z" fill="#007B84"/>
<path d="M15.89 11.3777C15.1553 11.3854 14.9383 11.3777 14.869 11.3609C14.8424 11.4912 14.3466 13.8454 14.3452 13.8473C14.2385 14.3236 14.1608 14.6631 13.897 14.8824C13.7472 15.0098 13.5724 15.0713 13.3697 15.0713C13.0439 15.0713 12.8541 14.9048 12.8222 14.5889L12.8161 14.4805C12.8161 14.4805 12.9154 13.8425 12.9154 13.8389C12.9154 13.8389 13.4357 11.6936 13.5289 11.41C13.5337 11.3938 13.5351 11.3854 13.5364 11.3777C12.5236 11.3868 12.3441 11.3777 12.3317 11.3609C12.3249 11.384 12.2998 11.517 12.2998 11.517L11.7685 13.935L11.7229 14.14L11.6346 14.8108C11.6346 15.0098 11.6726 15.1722 11.7482 15.3095C11.9902 15.7449 12.6807 15.8102 13.0712 15.8102C13.5745 15.8102 14.0466 15.7001 14.3656 15.4992C14.9193 15.1624 15.0642 14.6359 15.1934 14.168L15.2533 13.928C15.2533 13.928 15.7893 11.6998 15.8804 11.41C15.8839 11.3938 15.8853 11.3854 15.89 11.3777ZM17.7136 13.1752C17.5844 13.1752 17.3483 13.2074 17.1362 13.3145C17.0592 13.3552 16.9864 13.4021 16.9097 13.4489L16.979 13.1913L16.941 13.1479C16.4912 13.2417 16.3906 13.2542 15.9751 13.3145L15.9402 13.3383C15.892 13.7501 15.8492 14.0596 15.6703 14.869C15.6022 15.1673 15.5315 15.4684 15.4607 15.766L15.4798 15.8038C15.9056 15.7807 16.0348 15.7807 16.4048 15.787L16.4348 15.7534C16.4818 15.5055 16.4879 15.4474 16.592 14.9453C16.641 14.7073 16.743 14.1842 16.7933 13.998C16.8858 13.9539 16.977 13.9105 17.0641 13.9105C17.2715 13.9105 17.2463 14.0967 17.2382 14.171C17.2294 14.2955 17.1538 14.7024 17.0763 15.0518L17.0246 15.2773C16.9885 15.4439 16.949 15.6057 16.913 15.7708L16.9286 15.8038C17.3483 15.7807 17.4763 15.7807 17.8347 15.787L17.8768 15.7534C17.9416 15.3662 17.9606 15.2626 18.0755 14.6989L18.1333 14.4398C18.2456 13.9329 18.302 13.6758 18.2171 13.4665C18.1272 13.2318 17.9116 13.1752 17.7136 13.1752ZM19.7509 13.7059C19.5278 13.75 19.3855 13.7794 19.2441 13.7984C19.104 13.8216 18.9673 13.8425 18.7517 13.8734L18.7346 13.8893L18.719 13.902C18.6965 14.0673 18.6808 14.2102 18.651 14.3782C18.6258 14.5519 18.587 14.7492 18.5237 15.0328C18.4748 15.2499 18.4496 15.3255 18.4217 15.4019C18.3945 15.4783 18.3646 15.5525 18.3096 15.766L18.3224 15.7857L18.3332 15.8038C18.5347 15.7939 18.6665 15.7869 18.802 15.7857C18.9373 15.7807 19.0775 15.7857 19.2945 15.7869L19.3134 15.771L19.3338 15.7534C19.3652 15.5609 19.3699 15.5091 19.389 15.4152C19.408 15.3144 19.4407 15.175 19.521 14.8025C19.559 14.6275 19.6013 14.4531 19.6406 14.2745C19.6816 14.0967 19.7244 13.9216 19.7652 13.7466L19.7591 13.7255L19.7509 13.7059ZM19.7556 12.9903C19.5529 12.8672 19.1972 12.9062 18.9577 13.0764C18.719 13.2431 18.6918 13.4797 18.8938 13.6044C19.093 13.7242 19.4502 13.6885 19.6875 13.517C19.9258 13.3467 19.9555 13.1122 19.7556 12.9903ZM20.9815 15.8424C21.3915 15.8424 21.8119 15.726 22.1283 15.3808C22.3717 15.1008 22.4834 14.6842 22.522 14.5127C22.6479 13.944 22.5499 13.6786 22.4268 13.5169C22.2398 13.2704 21.9092 13.1914 21.5664 13.1914C21.3602 13.1914 20.8691 13.2123 20.4855 13.5764C20.21 13.839 20.0827 14.1954 20.0059 14.537C19.9285 14.8851 19.8393 15.5118 20.3991 15.745C20.5719 15.8214 20.8209 15.8424 20.9815 15.8424ZM20.9494 14.563C21.044 14.1324 21.1556 13.7711 21.4405 13.7711C21.6637 13.7711 21.6799 14.04 21.5807 14.472C21.5629 14.5679 21.4814 14.9244 21.3712 15.0762C21.2942 15.1883 21.2031 15.2562 21.1025 15.2562C21.0725 15.2562 20.8944 15.2562 20.8916 14.9839C20.8902 14.8495 20.9168 14.7122 20.9494 14.563ZM23.5472 15.787L23.5792 15.7535C23.6247 15.5056 23.6321 15.4473 23.7328 14.9454C23.7831 14.7073 23.8872 14.1843 23.9362 13.998C24.0288 13.9537 24.1185 13.9104 24.2084 13.9104C24.4144 13.9104 24.3893 14.0966 24.3811 14.1708C24.3736 14.2956 24.298 14.7023 24.2191 15.0517L24.1702 15.2772C24.1328 15.4439 24.092 15.6056 24.056 15.7709L24.0717 15.8039C24.4927 15.7807 24.6158 15.7807 24.9763 15.787L25.0198 15.7535C25.083 15.3661 25.1001 15.2625 25.2185 14.6989L25.2749 14.4397C25.3878 13.9328 25.4449 13.6759 25.3613 13.4665C25.2688 13.2319 25.0519 13.1752 24.8567 13.1752C24.7273 13.1752 24.4899 13.2073 24.2791 13.3145C24.2037 13.3552 24.1281 13.402 24.0539 13.449L24.1185 13.1914L24.0838 13.1478C23.6342 13.2417 23.5315 13.2543 23.1165 13.3145L23.0847 13.3384C23.0343 13.7501 22.9934 14.0595 22.8146 14.869C22.7465 15.1673 22.6758 15.4685 22.6051 15.766L22.6241 15.8039C23.0505 15.7807 23.1778 15.7807 23.5472 15.787ZM26.6408 15.8038C26.6672 15.6708 26.8245 14.8824 26.8259 14.8824C26.8259 14.8824 26.9598 14.3039 26.968 14.283C26.968 14.283 27.0101 14.2227 27.0522 14.1989H27.1142C27.6992 14.1989 28.3596 14.1989 28.8773 13.8068C29.2296 13.538 29.4705 13.1409 29.5779 12.6583C29.6058 12.54 29.6263 12.3993 29.6263 12.2586C29.6263 12.0738 29.5903 11.8909 29.4861 11.7481C29.2221 11.3679 28.6964 11.3609 28.0896 11.358C28.0876 11.358 27.7904 11.3609 27.7904 11.3609C27.0136 11.3707 26.7021 11.3679 26.5741 11.3517C26.5633 11.41 26.5429 11.5136 26.5429 11.5136C26.5429 11.5136 26.2646 12.8412 26.2646 12.8433C26.2646 12.8433 25.5987 15.6659 25.5674 15.7989C26.2456 15.7905 26.5237 15.7905 26.6408 15.8038ZM27.1564 13.4455C27.1564 13.4455 27.4522 12.1206 27.4508 12.1256L27.4604 12.0577L27.4646 12.0059L27.5828 12.0184C27.5828 12.0184 28.193 12.0724 28.2073 12.0738C28.4481 12.1697 28.5474 12.4169 28.4781 12.7396C28.4148 13.0344 28.229 13.2823 27.9903 13.4021C27.7937 13.5035 27.5529 13.512 27.3047 13.512H27.1442L27.1564 13.4455ZM28.9984 14.5876C28.9203 14.9307 28.8304 15.5573 29.3875 15.7807C29.5651 15.8585 29.7242 15.8816 29.886 15.8732C30.0568 15.8637 30.2151 15.7755 30.3617 15.6486C30.3485 15.7007 30.3353 15.7529 30.322 15.8053L30.3473 15.8388C30.748 15.8214 30.8723 15.8214 31.3064 15.8248L31.3458 15.794C31.4092 15.4104 31.4689 15.0379 31.6336 14.304C31.7139 13.9525 31.794 13.6043 31.8764 13.2543L31.8635 13.2157C31.4153 13.3012 31.2955 13.3195 30.8643 13.3824L30.8316 13.4098C30.8272 13.4455 30.8227 13.4798 30.8185 13.514C30.7515 13.4025 30.6543 13.3073 30.5044 13.248C30.3126 13.1704 29.8623 13.2704 29.4752 13.6332C29.2032 13.8922 29.0726 14.2472 28.9984 14.5876ZM29.9398 14.6085C30.0358 14.1857 30.146 13.8279 30.4316 13.8279C30.6122 13.8279 30.7072 13.9994 30.6879 14.292C30.6726 14.3649 30.656 14.4418 30.6364 14.5288C30.6078 14.6544 30.5768 14.779 30.5467 14.9038C30.516 14.9891 30.4803 15.0696 30.4412 15.1232C30.3677 15.2304 30.1928 15.2969 30.0922 15.2969C30.0636 15.2969 29.8874 15.2969 29.8813 15.0294C29.8799 14.8962 29.9066 14.7591 29.9398 14.6085ZM34.8557 13.2123L34.8211 13.1716C34.3776 13.2641 34.2973 13.2788 33.8898 13.3354L33.8599 13.3663C33.8585 13.3713 33.8572 13.379 33.8552 13.386L33.8538 13.379C33.5504 14.0994 33.5593 13.944 33.3124 14.5112C33.311 14.4854 33.311 14.4692 33.3096 14.4418L33.2478 13.2123L33.2089 13.1716C32.7444 13.2641 32.7334 13.2788 32.3043 13.3354L32.2709 13.3663C32.2662 13.381 32.2662 13.3971 32.2634 13.4147L32.2662 13.4209C32.3198 13.7031 32.3069 13.6402 32.3607 14.0854C32.3858 14.304 32.4192 14.5237 32.4443 14.7396C32.4866 15.1008 32.5103 15.2786 32.562 15.8298C32.2723 16.322 32.2037 16.5083 31.9247 16.9403L31.9266 16.9446L31.7302 17.2644C31.7077 17.2981 31.6874 17.3212 31.6588 17.3311C31.6275 17.347 31.5867 17.3499 31.5301 17.3499H31.4213L31.2595 17.9038L31.8145 17.9137C32.1403 17.9122 32.3451 17.7554 32.4553 17.5446L32.8043 16.929H32.7987L32.8354 16.8856C33.0702 16.3654 34.8557 13.2123 34.8557 13.2123ZM28.9984 20.487H28.763L29.6344 17.5201H29.9234L30.0152 17.2145L30.0241 17.5543C30.0133 17.7644 30.1738 17.9507 30.5956 17.9198H31.0833L31.2512 17.3485H31.0677C30.9621 17.3485 30.9132 17.3211 30.9193 17.2623L30.9104 16.9165H30.0072V16.9183C29.7152 16.9246 28.8431 16.9472 28.6665 16.9956C28.4529 17.0522 28.2277 17.2189 28.2277 17.2189L28.3162 16.913H27.4713L27.2952 17.5201L26.4122 20.5323H26.2408L26.0728 21.0995H27.7556L27.6992 21.2886H28.5284L28.5835 21.0995H28.8161L28.9984 20.487ZM28.308 18.1229C28.1727 18.1615 27.9209 18.2784 27.9209 18.2784L28.1448 17.5201H28.8161L28.6542 18.0726C28.6542 18.0726 28.4468 18.0851 28.308 18.1229ZM28.3209 19.2062C28.3209 19.2062 28.11 19.2334 27.9712 19.2657C27.8345 19.3084 27.5782 19.4428 27.5782 19.4428L27.8094 18.6537H28.4842L28.3209 19.2062ZM27.9447 20.494H27.2714L27.4666 19.828H28.1378L27.9447 20.494ZM29.5664 18.6537H30.537L30.3975 19.1187H29.414L29.2664 19.6271H30.1269L29.4753 20.5716C29.4297 20.641 29.3888 20.6655 29.3433 20.6851C29.2977 20.7089 29.2378 20.7369 29.1685 20.7369H28.9297L28.7657 21.2936H29.3902C29.7148 21.2936 29.9065 21.1416 30.048 20.9421L30.4949 20.3126L30.5908 20.9518C30.6112 21.0715 30.6948 21.1416 30.7514 21.1689C30.8139 21.2011 30.8785 21.2565 30.9697 21.2648C31.0676 21.2691 31.1383 21.2725 31.1853 21.2725H31.4921L31.6764 20.6494H31.5554C31.4859 20.6494 31.3662 20.6374 31.3459 20.615C31.3255 20.5877 31.3255 20.5458 31.3145 20.482L31.2172 19.8413H30.8186L30.9934 19.6271H31.975L32.126 19.1187H31.2172L31.3588 18.6537H32.2648L32.4328 18.0803H29.7316L29.5664 18.6537ZM21.3684 20.6234L21.595 19.8476H22.5261L22.6962 19.2706H21.7642L21.9065 18.7931H22.8172L22.986 18.2343H20.7072L20.542 18.7931H21.0597L20.9216 19.2706H20.4025L20.2304 19.8575H20.748L20.446 20.8839C20.4053 21.0198 20.4652 21.0716 20.5031 21.1347C20.542 21.1962 20.5813 21.2369 20.6698 21.26C20.761 21.281 20.8235 21.2935 20.9085 21.2935H21.9582L22.1452 20.6543L21.6799 20.7201C21.5901 20.7201 21.3413 20.709 21.3684 20.6234ZM21.4752 16.9095L21.2393 17.3485C21.1888 17.4444 21.1433 17.5039 21.1024 17.5313C21.0663 17.5544 20.9949 17.5641 20.8915 17.5641H20.7684L20.6038 18.1257H21.0127C21.2093 18.1257 21.3603 18.0515 21.4324 18.0144C21.5099 17.9717 21.5302 17.9961 21.5901 17.9366L21.7282 17.8134H23.005L23.1744 17.2287H22.2398L22.403 16.9095H21.4752ZM23.3601 20.6347C23.3384 20.6025 23.354 20.5456 23.3873 20.4273L23.7363 19.2383H24.9777C25.1586 19.2356 25.2892 19.2335 25.3742 19.2272C25.4654 19.2173 25.5647 19.1838 25.6728 19.1236C25.7844 19.0605 25.8415 18.994 25.8898 18.9176C25.9436 18.8414 26.03 18.6747 26.1041 18.4177L26.5428 16.913L25.2545 16.9207C25.2545 16.9207 24.8579 16.9809 24.6832 17.0474C24.507 17.1216 24.2552 17.3289 24.2552 17.3289L24.3715 16.9164H23.5757L22.4616 20.72C22.4221 20.8678 22.3956 20.9749 22.3895 21.0393C22.3874 21.1087 22.4745 21.1773 22.5309 21.2291C22.5976 21.2809 22.6961 21.2725 22.7907 21.2809C22.8901 21.2886 23.0315 21.2935 23.2267 21.2935H23.8383L24.026 20.641L23.4785 20.6942C23.42 20.6942 23.3777 20.662 23.3601 20.6347ZM23.9614 18.4352H25.2653L25.1824 18.7027C25.1708 18.709 25.1429 18.6894 25.0102 18.7056H23.8811L23.9614 18.4352ZM24.2226 17.5382H25.5375L25.443 17.8604C25.443 17.8604 24.8232 17.8541 24.7239 17.8729C24.2872 17.9507 24.0321 18.1909 24.0321 18.1909L24.2226 17.5382ZM25.2116 19.5983C25.2008 19.6383 25.1838 19.6627 25.1599 19.6809C25.1334 19.6985 25.0906 19.7048 25.0267 19.7048H24.8409L24.8519 19.3791H24.0791L24.0477 20.9714C24.0465 21.0863 24.0573 21.1528 24.139 21.2061C24.2206 21.2726 24.4723 21.281 24.8109 21.281H25.2952L25.47 20.685L25.0485 20.7088L24.9083 20.7172C24.8891 20.7088 24.8708 20.7011 24.8505 20.6801C24.8327 20.662 24.8028 20.6731 24.8076 20.5582L24.8109 20.1501L25.2531 20.1312C25.4918 20.1312 25.5939 20.0513 25.6809 19.9751C25.764 19.9022 25.7912 19.8183 25.8225 19.7048L25.8967 19.3434H25.2891L25.2116 19.5983Z" fill="#FEFEFE"/>
</svg>
