<svg width="24" height="24" viewBox="0 0 24 24" fill="none" xmlns="http://www.w3.org/2000/svg">
<path d="M11.48 3.49921C11.5223 3.39605 11.5943 3.30779 11.6869 3.24567C11.7795 3.18356 11.8885 3.15039 12 3.15039C12.1115 3.15039 12.2205 3.18356 12.3131 3.24567C12.4057 3.30779 12.4777 3.39605 12.52 3.49921L14.645 8.61021C14.6848 8.70585 14.7502 8.78866 14.834 8.84953C14.9178 8.9104 15.0167 8.94697 15.12 8.95521L20.638 9.39721C21.137 9.43721 21.339 10.0602 20.959 10.3852L16.755 13.9872C16.6765 14.0544 16.6179 14.1419 16.5858 14.2402C16.5537 14.3384 16.5493 14.4436 16.573 14.5442L17.858 19.9292C17.8838 20.0373 17.8771 20.1505 17.8385 20.2547C17.8 20.3589 17.7315 20.4494 17.6416 20.5146C17.5517 20.5799 17.4445 20.6171 17.3335 20.6214C17.2225 20.6258 17.1127 20.5972 17.018 20.5392L12.293 17.6542C12.2047 17.6004 12.1034 17.572 12 17.572C11.8966 17.572 11.7953 17.6004 11.707 17.6542L6.982 20.5402C6.88726 20.5982 6.77745 20.6268 6.66646 20.6224C6.55546 20.6181 6.44825 20.5809 6.35837 20.5156C6.26848 20.4504 6.19996 20.3599 6.16145 20.2557C6.12294 20.1515 6.11617 20.0383 6.142 19.9302L7.427 14.5442C7.45083 14.4436 7.44645 14.3384 7.41434 14.2401C7.38223 14.1418 7.32363 14.0543 7.245 13.9872L3.041 10.3852C2.95681 10.3128 2.89591 10.2172 2.86595 10.1102C2.83599 10.0033 2.83831 9.88996 2.87261 9.78436C2.90692 9.67876 2.97169 9.58567 3.05876 9.51678C3.14584 9.4479 3.25134 9.4063 3.362 9.39721L8.88 8.95521C8.98325 8.94697 9.08222 8.9104 9.16602 8.84953C9.24983 8.78866 9.31522 8.70585 9.355 8.61021L11.48 3.49921Z" fill="#FFF4A8" stroke="#FFF4A8" stroke-width="1.5" stroke-linecap="round" stroke-linejoin="round"/>
</svg>
